<?xml version="1.0" encoding="UTF-8" standalone="no"?>
<!-- Created with Inkscape (http://www.inkscape.org/) -->

<svg
   width="85.5205mm"
   height="85.5205mm"
   version="1.1"
   viewBox="0 0 85.520503 85.520503"
   id="svg16"
   sodipodi:docname="ccs_logo_2.svg"
   inkscape:version="1.1.1 (3bf5ae0d25, 2021-09-20, custom)"
   xmlns:inkscape="http://www.inkscape.org/namespaces/inkscape"
   xmlns:sodipodi="http://sodipodi.sourceforge.net/DTD/sodipodi-0.dtd"
   xmlns:xlink="http://www.w3.org/1999/xlink"
   xmlns="http://www.w3.org/2000/svg"
   xmlns:svg="http://www.w3.org/2000/svg"
   xmlns:rdf="http://www.w3.org/1999/02/22-rdf-syntax-ns#"
   xmlns:cc="http://creativecommons.org/ns#"
   xmlns:dc="http://purl.org/dc/elements/1.1/">
  <defs
     id="defs20" />
  <sodipodi:namedview
     id="namedview18"
     pagecolor="#ffffff"
     bordercolor="#666666"
     borderopacity="1.0"
     inkscape:pageshadow="2"
     inkscape:pageopacity="0.0"
     inkscape:pagecheckerboard="0"
     inkscape:document-units="mm"
     showgrid="false"
     inkscape:zoom="1.9344228"
     inkscape:cx="-46.783981"
     inkscape:cy="161.5469"
     inkscape:window-width="2560"
     inkscape:window-height="1385"
     inkscape:window-x="0"
     inkscape:window-y="27"
     inkscape:window-maximized="1"
     inkscape:current-layer="g14"
     fit-margin-top="1.1685097e-14"
     fit-margin-left="1.1685097e-14"
     fit-margin-right="1.1685097e-14"
     fit-margin-bottom="1.1685097e-14"
     lock-margins="true" />
  <metadata
     id="metadata2">
    <rdf:RDF>
      <cc:Work
         rdf:about="">
        <dc:format>image/svg+xml</dc:format>
        <dc:type
           rdf:resource="http://purl.org/dc/dcmitype/StillImage" />
      </cc:Work>
    </rdf:RDF>
  </metadata>
  <g
     transform="translate(-21.117249,-168.81624)"
     id="g14">
    <path
       style="fill:#ffffff;fill-opacity:1;fill-rule:nonzero;stroke:none;stroke-width:31.1206;stroke-linecap:round;stroke-opacity:1;paint-order:stroke markers fill"
       id="path6418"
       sodipodi:type="arc"
       sodipodi:cx="63.877499"
       sodipodi:cy="211.57649"
       sodipodi:rx="42.76025"
       sodipodi:ry="42.76025"
       sodipodi:start="0.78539816"
       sodipodi:end="0.77791353"
       sodipodi:open="true"
       sodipodi:arc-type="arc"
       d="m 94.113561,241.81256 a 42.76025,42.76025 0 0 1 -60.415496,0.0565 42.76025,42.76025 0 0 1 -0.16957,-60.41529 42.76025,42.76025 0 0 1 60.414862,-0.28261 42.76025,42.76025 0 0 1 0.395661,60.41422" />
    <path
       style="color:#000000;fill:#73d216;stroke-linecap:round;-inkscape-stroke:none"
       sodipodi:type="inkscape:offset"
       inkscape:radius="0"
       inkscape:original="M 57.269531 180.03711 C 49.638195 180.3288 42.311647 184.73528 38.507812 191.36328 C 34.584173 198.03511 34.347513 206.70061 37.941406 213.5625 C 41.162181 219.81842 47.389622 224.43781 54.341797 225.5957 C 61.705478 226.90507 69.715907 224.43952 74.847656 218.94727 C 76.608495 217.05309 76.516559 213.84856 74.695312 212.02734 C 73.025885 210.16697 69.978241 209.89221 67.966797 211.35742 C 66.954516 212.1108 66.214298 213.04492 65.123047 213.66602 C 62.681634 215.23542 59.595819 215.89561 56.785156 215.54688 C 54.337775 215.25893 51.789236 214.10694 49.970703 212.4375 C 46.775609 209.62809 45.113251 205.16763 45.839844 200.95703 C 46.605355 196.25888 50.155321 192.18003 54.751953 190.83398 C 59.116127 189.50419 64.160764 190.78522 67.326172 194.08008 C 68.818822 195.50395 71.147094 195.97534 73.035156 195.09961 C 75.40221 194.10193 76.741996 191.2011 75.861328 188.76953 C 75.209126 186.80687 73.405059 185.59946 71.857422 184.37695 C 67.671687 181.33657 62.43462 179.79157 57.269531 180.03711 z "
       xlink:href="#path8"
       id="path5054"
       inkscape:href="#path8"
       d="m 57.269531,180.03711 c -7.631336,0.29169 -14.957884,4.69817 -18.761719,11.32617 -3.923639,6.67183 -4.160299,15.33733 -0.566406,22.19922 3.220775,6.25592 9.448216,10.87531 16.400391,12.0332 7.363681,1.30937 15.37411,-1.15618 20.505859,-6.64843 1.760839,-1.89418 1.668903,-5.09871 -0.152344,-6.91993 -1.669427,-1.86037 -4.717071,-2.13513 -6.728515,-0.66992 -1.012281,0.75338 -1.752499,1.6875 -2.84375,2.3086 -2.441413,1.5694 -5.527228,2.22959 -8.337891,1.88086 -2.447381,-0.28795 -4.99592,-1.43994 -6.814453,-3.10938 -3.195094,-2.80941 -4.857452,-7.26987 -4.130859,-11.48047 0.765511,-4.69815 4.315477,-8.777 8.912109,-10.12305 4.364174,-1.32979 9.408811,-0.0488 12.574219,3.2461 1.49265,1.42387 3.820922,1.89526 5.708984,1.01953 2.367054,-0.99768 3.70684,-3.89851 2.826172,-6.33008 -0.652202,-1.96266 -2.456269,-3.17007 -4.003906,-4.39258 -4.185735,-3.04038 -9.422802,-4.58538 -14.587891,-4.33984 z" />
    <g
       id="g5181"
       transform="translate(-0.80041755,-0.25895814)">
      <path
         id="path6"
         style="color:#000000;fill:#3465a4;stroke-linecap:round;-inkscape-stroke:none"
         d="m 70.470313,197.75378 c -6.10948,0.13321 -12.232528,2.74521 -16.285156,7.36523 -1.668373,2.24026 -1.045274,5.76967 1.323257,7.27061 1.93021,1.32685 4.74612,1.12722 6.422837,-0.53233 1.852275,-1.80881 4.183389,-3.16546 6.755859,-3.60156 2.451796,-0.45022 5.210534,-0.15872 7.539063,0.91797 2.601778,1.19446 4.909886,3.39113 6.158203,6.04688 0.617324,1.26979 1.037397,2.69361 1.187469,4.00252 0.587098,4.41974 -1.468142,8.99711 -5.041794,11.6279 -3.019875,2.3401 -7.326611,3.14708 -11.046763,2.0104 -2.222737,-0.62388 -4.197817,-1.92392 -5.809849,-3.55684 -2.072125,-1.74464 -5.488725,-1.47849 -7.203126,0.64453 -1.595953,1.8216 -1.650534,4.75043 -0.07617,6.60352 1.383421,1.59305 3.123045,2.8544 4.913095,3.95411 6.629752,3.92813 15.251052,4.21699 22.110583,0.6881 6.429066,-3.23385 11.152818,-9.64724 12.243191,-16.77151 1.147223,-6.96175 -1.068681,-14.41359 -5.962662,-19.52063 -4.397193,-4.66298 -10.818629,-7.34136 -17.228037,-7.1489 z" />
      <path
         id="path8"
         style="color:#000000;fill:#73d216;stroke-linecap:round;-inkscape-stroke:none"
         d="m 57.269531,180.03711 c -7.631336,0.29169 -14.957165,4.69748 -18.760999,11.32548 -3.92364,6.67183 -4.161019,15.33802 -0.567126,22.19991 3.220775,6.25592 9.448076,10.87466 16.400251,12.03255 7.363681,1.30937 15.3752,-1.1547 20.506949,-6.64695 1.760839,-1.89418 1.667323,-5.09886 -0.153923,-6.92008 -1.669428,-1.86037 -4.716442,-2.13581 -6.727886,-0.6706 -1.012281,0.75338 -1.753472,1.68751 -2.844723,2.30861 -2.441413,1.5694 -5.526255,2.22959 -8.336918,1.88085 -2.447381,-0.28795 -4.996109,-1.43938 -6.814642,-3.10882 -3.195094,-2.80941 -4.856932,-7.26958 -4.130339,-11.48018 0.765511,-4.69815 4.315466,-8.77814 8.912098,-10.12419 4.364174,-1.32979 9.408975,-0.0477 12.574383,3.24716 1.49265,1.42387 3.820815,1.89433 5.708877,1.0186 2.367054,-0.99768 3.706282,-3.89886 2.825614,-6.33043 -0.652202,-1.96266 -2.456817,-3.16905 -4.004454,-4.39156 -4.185735,-3.04038 -9.422073,-4.58589 -14.587162,-4.34035 z" />
    </g>
  </g>
</svg>
