<?xml version="1.0" encoding="UTF-8" standalone="no"?>
<!-- Created with Inkscape (http://www.inkscape.org/) -->

<svg
   width="26.510696mm"
   height="28.219185mm"
   viewBox="0 0 26.510696 28.219185"
   version="1.1"
   id="svg5"
   inkscape:version="1.3 (0e150ed6c4, 2023-07-21)"
   sodipodi:docname="collapse.svg"
   xmlns:inkscape="http://www.inkscape.org/namespaces/inkscape"
   xmlns:sodipodi="http://sodipodi.sourceforge.net/DTD/sodipodi-0.dtd"
   xmlns="http://www.w3.org/2000/svg"
   xmlns:svg="http://www.w3.org/2000/svg">
  <sodipodi:namedview
     id="namedview7"
     pagecolor="#ffffff"
     bordercolor="#999999"
     borderopacity="1"
     inkscape:showpageshadow="0"
     inkscape:pageopacity="0"
     inkscape:pagecheckerboard="0"
     inkscape:deskcolor="#d1d1d1"
     inkscape:document-units="mm"
     showgrid="false"
     inkscape:zoom="2.3786088"
     inkscape:cx="183.09022"
     inkscape:cy="61.17021"
     inkscape:window-width="2560"
     inkscape:window-height="1385"
     inkscape:window-x="0"
     inkscape:window-y="27"
     inkscape:window-maximized="1"
     inkscape:current-layer="layer1" />
  <defs
     id="defs2" />
  <g
     inkscape:label="Ebene 1"
     inkscape:groupmode="layer"
     id="layer1"
     transform="translate(-54.299432,-112.5212)">
    <path
       style="color:#000000;fill:#000000;stroke-linecap:round;-inkscape-stroke:none"
       d="m 54.986328,125.94336 a 0.6875,0.6875 0 0 0 -0.6875,0.6875 0.6875,0.6875 0 0 0 0.6875,0.6875 h 25.136719 a 0.6875,0.6875 0 0 0 0.6875,-0.6875 0.6875,0.6875 0 0 0 -0.6875,-0.6875 z"
       id="path2600" />
    <g
       id="path2600-3-3">
      <path
         style="color:#000000;fill:#000000;stroke-linecap:round;-inkscape-stroke:none"
         d="m 67.554687,129.20898 a 0.87199998,0.87199998 0 0 0 -0.871093,0.8711 v 9.78906 a 0.87199998,0.87199998 0 0 0 0.871093,0.87109 0.87199998,0.87199998 0 0 0 0.873047,-0.87109 v -9.78906 a 0.87199998,0.87199998 0 0 0 -0.873047,-0.8711 z"
         id="path6" />
      <g
         id="g5">
        <path
           style="color:#000000;fill:#000000;stroke-linecap:round;-inkscape-stroke:none"
           d="m 67.554687,128.57617 -5.269531,5.26953 a 0.78571498,0.78571498 0 0 0 0,1.11133 0.78571498,0.78571498 0 0 0 1.111328,0 l 4.158203,-4.1582 4.158204,4.1582 a 0.78571498,0.78571498 0 0 0 1.111328,0 0.78571498,0.78571498 0 0 0 0,-1.11133 z"
           id="path5" />
      </g>
    </g>
    <g
       id="path2600-3-3-2">
      <path
         style="color:#000000;fill:#000000;stroke-linecap:round;-inkscape-stroke:none"
         d="m 67.554687,112.52148 a 0.87199998,0.87199998 0 0 0 -0.871093,0.8711 v 9.78906 a 0.87199998,0.87199998 0 0 0 0.871093,0.87109 0.87199998,0.87199998 0 0 0 0.873047,-0.87109 v -9.78906 a 0.87199998,0.87199998 0 0 0 -0.873047,-0.8711 z"
         id="path3" />
      <g
         id="g2">
        <path
           style="color:#000000;fill:#000000;stroke-linecap:round;-inkscape-stroke:none"
           d="m 62.839844,118.07422 a 0.78571498,0.78571498 0 0 0 -0.554688,0.23047 0.78571498,0.78571498 0 0 0 0,1.10937 l 5.269531,5.27149 5.269532,-5.27149 a 0.78571498,0.78571498 0 0 0 0,-1.10937 0.78571498,0.78571498 0 0 0 -1.111328,0 l -4.158204,4.1582 -4.158203,-4.1582 a 0.78571498,0.78571498 0 0 0 -0.55664,-0.23047 z"
           id="path2" />
      </g>
    </g>
  </g>
</svg>
