<?xml version="1.0" encoding="UTF-8" standalone="no"?>
<!-- Created with Inkscape (http://www.inkscape.org/) -->

<svg
   width="3.2914062mm"
   height="16.392313mm"
   viewBox="0 0 3.2914062 16.392313"
   version="1.1"
   id="svg5"
   inkscape:version="1.1.2 (0a00cf5339, 2022-02-04, custom)"
   sodipodi:docname="roman_1.svg"
   xmlns:inkscape="http://www.inkscape.org/namespaces/inkscape"
   xmlns:sodipodi="http://sodipodi.sourceforge.net/DTD/sodipodi-0.dtd"
   xmlns="http://www.w3.org/2000/svg"
   xmlns:svg="http://www.w3.org/2000/svg">
  <sodipodi:namedview
     id="namedview7"
     pagecolor="#ffffff"
     bordercolor="#999999"
     borderopacity="1"
     inkscape:pageshadow="0"
     inkscape:pageopacity="0"
     inkscape:pagecheckerboard="0"
     inkscape:document-units="mm"
     showgrid="false"
     inkscape:zoom="1.8116734"
     inkscape:cx="59.889382"
     inkscape:cy="-10.487542"
     inkscape:window-width="2560"
     inkscape:window-height="1385"
     inkscape:window-x="0"
     inkscape:window-y="27"
     inkscape:window-maximized="1"
     inkscape:current-layer="layer1"
     lock-margins="false"
     fit-margin-top="5"
     fit-margin-left="0"
     fit-margin-right="0"
     fit-margin-bottom="5" />
  <defs
     id="defs2" />
  <g
     inkscape:label="Ebene 1"
     inkscape:groupmode="layer"
     id="layer1"
     transform="translate(-28.947337,-82.292847)">
    <g
       aria-label="Ⅰ"
       id="text45640"
       style="font-weight:bold;font-size:10.5833px;line-height:1.25;font-family:'Linux Libertine O';-inkscape-font-specification:'Linux Libertine O, Bold';letter-spacing:0px;word-spacing:0px;fill:#5e5c64;stroke-width:0.264583">
      <path
         d="m 29.905126,88.605177 v 3.767654 c 0,0.878414 -0.296333,0.920747 -0.878414,0.952497 -0.105833,0.0635 -0.105833,0.296333 0,0.359832 0.423332,-0.01058 1.153579,-0.02117 1.576911,-0.02117 0.423332,0 1.132413,0.01058 1.555745,0.02117 0.105833,-0.0635 0.105833,-0.296332 0,-0.359832 -0.582081,-0.03175 -0.878414,-0.07408 -0.878414,-0.952497 v -3.767654 c 0,-0.878414 0.296333,-0.920747 0.878414,-0.952497 0.105833,-0.0635 0.105833,-0.296333 0,-0.359833 -0.423332,0.01058 -1.132413,0.02117 -1.555745,0.02117 -0.423332,0 -1.153579,-0.01058 -1.576911,-0.02117 -0.105833,0.0635 -0.105833,0.296333 0,0.359833 0.582081,0.03175 0.878414,0.07408 0.878414,0.952497 z"
         id="path823" />
    </g>
  </g>
</svg>
