<?xml version="1.0" encoding="UTF-8" standalone="no"?>
<!-- Created with Inkscape (http://www.inkscape.org/) -->

<svg
   width="16.467615mm"
   height="16.498146mm"
   viewBox="0 0 16.467615 16.498147"
   version="1.1"
   id="svg5"
   inkscape:version="1.1.2 (0a00cf5339, 2022-02-04, custom)"
   sodipodi:docname="roman_8.svg"
   xmlns:inkscape="http://www.inkscape.org/namespaces/inkscape"
   xmlns:sodipodi="http://sodipodi.sourceforge.net/DTD/sodipodi-0.dtd"
   xmlns="http://www.w3.org/2000/svg"
   xmlns:svg="http://www.w3.org/2000/svg">
  <sodipodi:namedview
     id="namedview7"
     pagecolor="#ffffff"
     bordercolor="#999999"
     borderopacity="1"
     inkscape:pageshadow="0"
     inkscape:pageopacity="0"
     inkscape:pagecheckerboard="0"
     inkscape:document-units="mm"
     showgrid="false"
     inkscape:zoom="1.8116734"
     inkscape:cx="-334.22139"
     inkscape:cy="168.35264"
     inkscape:window-width="2560"
     inkscape:window-height="1385"
     inkscape:window-x="0"
     inkscape:window-y="27"
     inkscape:window-maximized="1"
     inkscape:current-layer="layer1"
     lock-margins="false"
     fit-margin-top="5"
     fit-margin-left="0"
     fit-margin-right="0"
     fit-margin-bottom="5" />
  <defs
     id="defs2" />
  <g
     inkscape:label="Ebene 1"
     inkscape:groupmode="layer"
     id="layer1"
     transform="translate(-7.5470339,-32.545361)">
    <g
       aria-label="Ⅷ"
       id="text75188"
       style="font-weight:bold;font-size:10.5833px;line-height:1.25;font-family:'Linux Libertine O';-inkscape-font-specification:'Linux Libertine O, Bold';letter-spacing:0px;word-spacing:0px;fill:#5e5c64;stroke-width:0.264583">
      <path
         d="m 13.658889,38.646025 c 0.243416,-0.624415 0.571499,-0.698498 1.026581,-0.730248 0.571498,0.03175 0.857247,0.08467 0.857247,0.941913 v 3.767655 c 0,0.878414 -0.296333,0.920747 -0.878414,0.952497 -0.105833,0.0635 -0.105833,0.296333 0,0.359832 0.423332,-0.01058 1.15358,-0.02117 1.576912,-0.02117 0.402165,0 1.05833,0.01058 1.481662,0.02117 0,0 0,0 0.01058,0 0.01058,0 0.02117,0 0.03175,0 0.01058,0 0.02117,0 0.03175,0 0,0 0,0 0,0 0.423332,-0.01058 1.111246,-0.02117 1.513411,-0.02117 0.402166,0 1.05833,0.01058 1.481662,0.02117 0,0 0,0 0.01058,0 0.01058,0 0.02117,0 0.03175,0 0.01058,0 0.02117,0 0.03175,0 0,0 0,0 0,0 0.423332,-0.01058 1.111246,-0.02117 1.513411,-0.02117 0.423332,0 1.132413,0.01058 1.555745,0.02117 0.105833,-0.0635 0.105833,-0.296332 0,-0.359832 -0.582081,-0.03175 -0.878413,-0.07408 -0.878413,-0.952497 V 38.85769 c 0,-0.878413 0.296332,-0.920747 0.878413,-0.952496 0.105833,-0.0635 0.105833,-0.296333 0,-0.359833 -0.423332,0.01058 -1.132413,0.02117 -1.555745,0.02117 -0.402165,0 -1.090079,0 -1.513411,-0.01058 0,0 0,-0.01058 0,-0.01058 -0.01058,0 -0.02117,0.01058 -0.03175,0.01058 -0.01058,0 -0.02117,-0.01058 -0.03175,-0.01058 -0.01058,0 -0.01058,0.01058 -0.01058,0.01058 -0.423332,0.01058 -1.079496,0.01058 -1.481662,0.01058 -0.402165,0 -1.090079,0 -1.513411,-0.01058 0,0 0,-0.01058 0,-0.01058 -0.01058,0 -0.02117,0.01058 -0.03175,0.01058 -0.01058,0 -0.02117,-0.01058 -0.03175,-0.01058 -0.01058,0 -0.01058,0.01058 -0.01058,0.01058 -0.423332,0.01058 -1.079497,0.01058 -1.481662,0.01058 -0.412749,0 -1.100664,0 -1.523996,-0.01058 v -0.01058 c -0.01058,0 -0.02117,0.01058 -0.03175,0.01058 -0.01058,0 -0.02117,-0.01058 -0.02117,-0.01058 -0.01058,0 -0.01058,0.01058 -0.01058,0.01058 -0.349249,0 -0.486832,0.01058 -0.878414,0.01058 -0.433916,0 -1.015997,-0.01058 -1.407579,-0.02117 -0.0635,0.0635 -0.0635,0.296333 0,0.359833 0.402165,0.03175 0.878414,0.105833 0.730248,0.497415 l -1.460496,3.291406 -0.179916,0.412748 -0.158749,-0.476248 -1.3123295,-3.301989 C 9.8594849,37.98986 10.26165,37.936943 10.769649,37.905194 c 0.0635,-0.0635 0.0635,-0.296333 0,-0.359833 -0.391582,0.01058 -1.4499124,0.02117 -1.8626611,0.02117 -0.4339152,0 -0.920747,-0.01058 -1.3123291,-0.02117 -0.0635,0.0635 -0.0635,0.296333 0,0.359833 0.4127487,0.04233 0.7514143,0.08467 0.952497,0.571498 l 2.3071592,5.323399 c 0.0635,0.15875 0.169333,0.243416 0.285749,0.243416 0.105833,0 0.1905,-0.07408 0.264583,-0.243416 z m 4.106321,4.931817 c -0.560915,-0.03175 -0.846664,-0.08467 -0.846664,-0.952497 V 38.85769 c 0,-0.857247 0.285749,-0.910163 0.846664,-0.941913 0.560915,0.03175 0.846664,0.08467 0.846664,0.941913 v 3.767655 c 0,0.867831 -0.285749,0.920747 -0.846664,0.952497 z m 3.069157,0 c -0.560915,-0.03175 -0.846664,-0.08467 -0.846664,-0.952497 V 38.85769 c 0,-0.857247 0.285749,-0.910163 0.846664,-0.941913 0.560915,0.03175 0.846664,0.08467 0.846664,0.941913 v 3.767655 c 0,0.867831 -0.285749,0.920747 -0.846664,0.952497 z"
         id="path823" />
    </g>
  </g>
</svg>
