<?xml version="1.0" encoding="UTF-8" standalone="no"?>
<!-- Created with Inkscape (http://www.inkscape.org/) -->

<svg
   width="10.339884mm"
   height="16.498146mm"
   viewBox="0 0 10.339884 16.498146"
   version="1.1"
   id="svg5"
   inkscape:version="1.1.2 (0a00cf5339, 2022-02-04, custom)"
   sodipodi:docname="roman_4.svg"
   xmlns:inkscape="http://www.inkscape.org/namespaces/inkscape"
   xmlns:sodipodi="http://sodipodi.sourceforge.net/DTD/sodipodi-0.dtd"
   xmlns="http://www.w3.org/2000/svg"
   xmlns:svg="http://www.w3.org/2000/svg">
  <sodipodi:namedview
     id="namedview7"
     pagecolor="#ffffff"
     bordercolor="#999999"
     borderopacity="1"
     inkscape:pageshadow="0"
     inkscape:pageopacity="0"
     inkscape:pagecheckerboard="0"
     inkscape:document-units="mm"
     showgrid="false"
     inkscape:zoom="1.8116734"
     inkscape:cx="-106.80733"
     inkscape:cy="128.61038"
     inkscape:window-width="2560"
     inkscape:window-height="1385"
     inkscape:window-x="0"
     inkscape:window-y="27"
     inkscape:window-maximized="1"
     inkscape:current-layer="layer1"
     lock-margins="false"
     fit-margin-top="5"
     fit-margin-left="0"
     fit-margin-right="0"
     fit-margin-bottom="5" />
  <defs
     id="defs2" />
  <g
     inkscape:label="Ebene 1"
     inkscape:groupmode="layer"
     id="layer1"
     transform="translate(-82.294759,-47.13823)">
    <g
       aria-label="Ⅳ"
       id="text64290"
       style="font-weight:bold;font-size:10.5833px;line-height:1.25;font-family:'Linux Libertine O';-inkscape-font-specification:'Linux Libertine O, Bold';letter-spacing:0px;word-spacing:0px;fill:#5e5c64;stroke-width:0.264583">
      <path
         d="m 91.528688,53.238893 c 0.253999,-0.634998 0.592664,-0.709081 1.058329,-0.740831 0.0635,-0.0635 0.0635,-0.296332 0,-0.359832 -0.391582,0.01058 -0.529165,0.02117 -0.941913,0.02117 -0.433915,0 -1.015997,-0.01058 -1.407579,-0.02117 -0.0635,0.0635 -0.0635,0.296333 0,0.359832 0.402165,0.03175 0.878414,0.105833 0.730248,0.497415 l -1.460496,3.291407 -0.179916,0.412748 -0.158749,-0.476248 -1.312329,-3.30199 c -0.127,-0.338665 0.275165,-0.391582 0.783164,-0.423332 0.0635,-0.0635 0.0635,-0.296332 0,-0.359832 -0.391582,0.01058 -1.449912,0.02117 -1.862661,0.02117 -0.423332,0 -0.888997,0 -1.269996,-0.01058 0,0 0,-0.01058 0,-0.01058 -0.01058,0 -0.02117,0.01058 -0.03175,0.01058 0,0 -0.01058,-0.01058 -0.01058,-0.01058 l -0.01058,0.01058 c -0.423332,0.01058 -1.100664,0.01058 -1.502829,0.01058 -0.423332,0 -1.15358,-0.01058 -1.576912,-0.02117 -0.105833,0.0635 -0.105833,0.296333 0,0.359832 0.582082,0.03175 0.878414,0.07408 0.878414,0.952497 v 3.767655 c 0,0.878414 -0.296332,0.920747 -0.878414,0.952497 -0.105833,0.0635 -0.105833,0.296332 0,0.359832 0.423332,-0.01058 1.15358,-0.02117 1.576912,-0.02117 0.423332,0 1.132413,0.01058 1.555745,0.02117 0.105833,-0.0635 0.105833,-0.296332 0,-0.359832 -0.582081,-0.03175 -0.878414,-0.07408 -0.878414,-0.952497 v -3.767655 c 0,-0.857247 0.285749,-0.910163 0.846664,-0.941913 0.402165,0.03175 0.740831,0.07408 0.941914,0.560915 l 2.307159,5.323399 c 0.0635,0.15875 0.169333,0.243416 0.285749,0.243416 0.105833,0 0.1905,-0.07408 0.264583,-0.243416 z"
         id="path823" />
    </g>
  </g>
</svg>
