<?xml version="1.0" encoding="UTF-8" standalone="no"?>
<!-- Created with Inkscape (http://www.inkscape.org/) -->

<svg
   width="9.4297199mm"
   height="16.392313mm"
   viewBox="0 0 9.4297199 16.392313"
   version="1.1"
   id="svg5"
   inkscape:version="1.1.2 (0a00cf5339, 2022-02-04, custom)"
   sodipodi:docname="roman_3.svg"
   xmlns:inkscape="http://www.inkscape.org/namespaces/inkscape"
   xmlns:sodipodi="http://sodipodi.sourceforge.net/DTD/sodipodi-0.dtd"
   xmlns="http://www.w3.org/2000/svg"
   xmlns:svg="http://www.w3.org/2000/svg">
  <sodipodi:namedview
     id="namedview7"
     pagecolor="#ffffff"
     bordercolor="#999999"
     borderopacity="1"
     inkscape:pageshadow="0"
     inkscape:pageopacity="0"
     inkscape:pagecheckerboard="0"
     inkscape:document-units="mm"
     showgrid="false"
     inkscape:zoom="1.8116734"
     inkscape:cx="-325.94175"
     inkscape:cy="-2.2079035"
     inkscape:window-width="2560"
     inkscape:window-height="1385"
     inkscape:window-x="0"
     inkscape:window-y="27"
     inkscape:window-maximized="1"
     inkscape:current-layer="layer1"
     lock-margins="false"
     fit-margin-top="5"
     fit-margin-left="0"
     fit-margin-right="0"
     fit-margin-bottom="5" />
  <defs
     id="defs2" />
  <g
     inkscape:label="Ebene 1"
     inkscape:groupmode="layer"
     id="layer1"
     transform="translate(-51.238648,-136.65328)">
    <g
       aria-label="Ⅲ"
       id="text62068"
       style="font-weight:bold;font-size:10.5833px;line-height:1.25;font-family:'Linux Libertine O';-inkscape-font-specification:'Linux Libertine O, Bold';letter-spacing:0px;word-spacing:0px;fill:#5e5c64;stroke-width:0.264583">
      <path
         d="m 52.196437,142.96561 v 3.76766 c 0,0.87841 -0.296333,0.92074 -0.878414,0.95249 -0.105833,0.0635 -0.105833,0.29634 0,0.35984 0.423332,-0.0106 1.15358,-0.0212 1.576912,-0.0212 0.402165,0 1.05833,0.0106 1.481662,0.0212 0,0 0,0 0.01058,0 0.01058,0 0.02117,0 0.03175,0 0.01058,0 0.02117,0 0.03175,0 0,0 0,0 0,0 0.423332,-0.0106 1.111246,-0.0212 1.513411,-0.0212 0.402166,0 1.05833,0.0106 1.481662,0.0212 0,0 0,0 0.01058,0 0.01058,0 0.02117,0 0.03175,0 0.01058,0 0.02117,0 0.03175,0 0,0 0,0 0,0 0.423332,-0.0106 1.111246,-0.0212 1.513411,-0.0212 0.423332,0 1.132413,0.0106 1.555745,0.0212 0.105833,-0.0635 0.105833,-0.29634 0,-0.35984 -0.582081,-0.0317 -0.878413,-0.0741 -0.878413,-0.95249 v -3.76766 c 0,-0.87841 0.296332,-0.92074 0.878413,-0.95249 0.105833,-0.0635 0.105833,-0.29634 0,-0.35984 -0.423332,0.0106 -1.132413,0.0212 -1.555745,0.0212 -0.402165,0 -1.090079,0 -1.513411,-0.0106 0,0 0,-0.0106 0,-0.0106 -0.01058,0 -0.02117,0.0106 -0.03175,0.0106 -0.01058,0 -0.02117,-0.0106 -0.03175,-0.0106 -0.01058,0 -0.01058,0.0106 -0.01058,0.0106 -0.423332,0.0106 -1.079496,0.0106 -1.481662,0.0106 -0.402165,0 -1.090079,0 -1.513411,-0.0106 0,0 0,-0.0106 0,-0.0106 -0.01058,0 -0.02117,0.0106 -0.03175,0.0106 -0.01058,0 -0.02117,-0.0106 -0.03175,-0.0106 -0.01058,0 -0.01058,0.0106 -0.01058,0.0106 -0.423332,0.0106 -1.079497,0.0106 -1.481662,0.0106 -0.423332,0 -1.15358,-0.0106 -1.576912,-0.0212 -0.105833,0.0635 -0.105833,0.29634 0,0.35984 0.582081,0.0318 0.878414,0.0741 0.878414,0.95249 z m 5.29165,4.72015 c -0.560915,-0.0317 -0.846664,-0.0847 -0.846664,-0.95249 v -3.76766 c 0,-0.85725 0.285749,-0.91016 0.846664,-0.94191 0.560915,0.0318 0.846664,0.0847 0.846664,0.94191 v 3.76766 c 0,0.86783 -0.285749,0.92074 -0.846664,0.95249 z m -3.069157,0 c -0.560915,-0.0317 -0.846664,-0.0847 -0.846664,-0.95249 v -3.76766 c 0,-0.85725 0.285749,-0.91016 0.846664,-0.94191 0.560915,0.0318 0.846664,0.0847 0.846664,0.94191 v 3.76766 c 0,0.86783 -0.285749,0.92074 -0.846664,0.95249 z"
         id="path823" />
    </g>
  </g>
</svg>
