<?xml version="1.0" encoding="UTF-8" standalone="no"?>
<!-- Created with Inkscape (http://www.inkscape.org/) -->

<svg
   xmlns:dc="http://purl.org/dc/elements/1.1/"
   xmlns:cc="http://creativecommons.org/ns#"
   xmlns:rdf="http://www.w3.org/1999/02/22-rdf-syntax-ns#"
   xmlns:svg="http://www.w3.org/2000/svg"
   xmlns="http://www.w3.org/2000/svg"
   xmlns:sodipodi="http://sodipodi.sourceforge.net/DTD/sodipodi-0.dtd"
   xmlns:inkscape="http://www.inkscape.org/namespaces/inkscape"
   width="39.962669mm"
   height="39.962669mm"
   viewBox="0 0 39.962669 39.962669"
   version="1.1"
   id="svg8"
   sodipodi:docname="icon_svg_with_layers.svg"
   inkscape:version="0.92.3 (2405546, 2018-03-11)">
  <defs
     id="defs2">
    <filter
       inkscape:collect="always"
       style="color-interpolation-filters:sRGB"
       id="filter2609"
       x="-0.0088131102"
       width="1.0176262"
       y="-0.0080238841"
       height="1.0160478">
      <feGaussianBlur
         inkscape:collect="always"
         stdDeviation="0.062871923"
         id="feGaussianBlur2611" />
    </filter>
  </defs>
  <sodipodi:namedview
     id="base"
     pagecolor="#ffffff"
     bordercolor="#666666"
     borderopacity="1.0"
     inkscape:pageopacity="0.0"
     inkscape:pageshadow="2"
     inkscape:zoom="0.70710678"
     inkscape:cx="166.76598"
     inkscape:cy="-75.773608"
     inkscape:document-units="mm"
     inkscape:current-layer="layer6"
     showgrid="false"
     inkscape:window-width="2493"
     inkscape:window-height="1385"
     inkscape:window-x="67"
     inkscape:window-y="27"
     inkscape:window-maximized="1" />
  <metadata
     id="metadata5">
    <rdf:RDF>
      <cc:Work
         rdf:about="">
        <dc:format>image/svg+xml</dc:format>
        <dc:type
           rdf:resource="http://purl.org/dc/dcmitype/StillImage" />
        <dc:title />
      </cc:Work>
    </rdf:RDF>
  </metadata>
  <g
     inkscape:groupmode="layer"
     id="layer7"
     inkscape:label="background"
     style="display:inline"
     transform="translate(-88.585019,-101.29981)">
    <path
       style="display:inline;fill:#ffffff;fill-opacity:1;stroke-width:0.08466666"
       d="m 88.585029,121.28114 v -19.98133 h 19.981331 19.98133 v 19.98133 19.98134 H 108.56636 88.585029 Z"
       id="path5095-7"
       inkscape:connector-curvature="0"
       sodipodi:nodetypes="ccccccccc" />
  </g>
  <g
     inkscape:groupmode="layer"
     id="layer8"
     inkscape:label="frame"
     style="display:inline"
     transform="translate(-88.585019,-101.29981)">
    <path
       style="display:inline;fill:#000000;fill-opacity:1;stroke-width:0.08466666"
       d="m 88.585019,121.28114 v -19.98133 h 19.981341 19.98133 v 19.98133 19.98134 H 108.56636 88.585019 Z m 39.793341,0 v -19.812 h -19.812 -19.812008 v 19.812 19.812 h 19.812008 19.812 z"
       id="path5095-5"
       inkscape:connector-curvature="0"
       sodipodi:nodetypes="cccccccccccccccccc" />
  </g>
  <g
     inkscape:groupmode="layer"
     id="layer5"
     inkscape:label="univie"
     style="display:inline"
     transform="translate(-88.585019,-101.29981)">
    <path
       style="display:inline;fill:#0063a6;fill-opacity:1;fill-rule:nonzero;stroke-width:0.08466666;filter:url(#filter2609)"
       d="m 113.16376,124.93351 c -0.8656,-0.29908 -1.49235,-0.87517 -1.90008,-1.74646 -0.32329,-0.69086 -0.44044,-1.37638 -0.38359,-2.24454 0.076,-1.1604 0.42822,-1.96835 1.17002,-2.68387 1.30057,-1.2545 3.54188,-1.11121 4.46708,0.28559 0.37982,0.57343 0.52763,1.12711 0.57806,2.16544 l 0.0442,0.91017 h -2.49762 -2.49761 l 0.0705,0.37746 c 0.15098,0.80814 0.73958,1.6028 1.38313,1.86732 0.69545,0.28587 1.56566,0.21738 2.36408,-0.18604 0.22583,-0.1141 0.41906,-0.19537 0.42944,-0.1806 0.12261,0.17476 0.48022,0.84962 0.45861,0.86547 -0.9251,0.678 -2.61676,0.93961 -3.68625,0.57006 z m 2.7686,-4.57021 c 0,-0.35141 -0.20592,-0.97815 -0.42033,-1.27925 -0.53264,-0.74803 -1.8389,-0.80165 -2.57171,-0.10555 -0.326,0.30966 -0.6222,0.83066 -0.71946,1.26551 l -0.0805,0.35983 h 1.896 1.896 z m -14.30768,1.65871 c -0.57308,-1.59491 -1.16901,-3.25226 -1.32429,-3.683 l -0.28232,-0.78317 h 0.69917 0.69916 l 0.41575,1.24883 c 0.22867,0.68686 0.68781,2.09376 1.02032,3.12645 l 0.60457,1.87762 0.18717,-0.60762 c 0.10295,-0.33419 0.55514,-1.74109 1.00487,-3.12645 l 0.8177,-2.51883 h 0.66985 c 0.49868,0 0.66064,0.027 0.63378,0.10583 -0.0198,0.0582 -0.60321,1.71556 -1.29637,3.683 l -1.26029,3.57717 h -0.77355 -0.77354 z m 6.43369,-0.78317 v -3.683 h 0.67733 0.67734 v 3.683 3.683 h -0.67734 -0.67733 z m -5.969,-4.6517 c -0.49706,-0.1803 -1.00286,-0.77577 -1.1725,-1.38037 -0.11699,-0.41694 -0.13984,-0.95055 -0.13984,-3.26565 v -2.76728 h 0.62862 0.62863 l 0.0275,2.64583 c 0.026,2.50187 0.0375,2.66739 0.21063,3.04199 0.22735,0.49195 0.5776,0.69563 1.18634,0.68991 0.53347,-0.005 1.02188,-0.26722 1.53528,-0.82419 l 0.35497,-0.38509 v -2.58423 -2.58422 h 0.635 0.635 v 3.683 3.683 h -0.5394 -0.5394 l -0.0579,-0.51169 -0.0579,-0.51169 -0.42035,0.37793 c -0.63987,0.5753 -1.09791,0.76663 -1.89874,0.79316 -0.43306,0.0143 -0.79947,-0.0219 -1.016,-0.10041 z m 6.05367,-3.7303 v -3.683 h 0.54202 0.54202 l 0.0593,0.51082 0.0593,0.51082 0.3787,-0.34907 c 0.20828,-0.19199 0.59492,-0.45044 0.85919,-0.57432 0.40972,-0.19207 0.59373,-0.22525 1.24927,-0.22525 0.70718,0 0.80143,0.0203 1.17635,0.254 0.50892,0.31715 0.84894,0.89553 0.97062,1.651 0.0487,0.30268 0.0889,1.68381 0.0893,3.06917 l 6.3e-4,2.51883 h -0.67299 -0.67299 l -0.0255,-2.7305 c -0.0238,-2.55246 -0.0366,-2.74924 -0.19484,-3.01798 -0.26957,-0.45766 -0.55813,-0.62571 -1.07439,-0.62571 -0.55294,0 -1.03247,0.2281 -1.60464,0.7633 l -0.4113,0.38473 v 2.61308 2.61308 h -0.635 -0.635 z m 7.366,0 v -3.683 h 0.635 0.635 v 3.683 3.683 h -0.635 -0.635 z m 0.20175,-4.99785 c -0.42892,-0.21897 -0.56624,-0.68126 -0.3351,-1.1282 0.24407,-0.472 0.9611,-0.58309 1.39685,-0.21642 0.21746,0.18298 0.2605,0.28011 0.2605,0.58794 0,0.69939 -0.67633,1.08643 -1.32225,0.75668 z"
       id="path5095-6"
       inkscape:connector-curvature="0"
       sodipodi:nodetypes="ccccccccccccccccsccccccscccccccccccscscccccccccccccccsccccccccccccccccccccccccccccccsccccccccscccccccccccccccccccsc" />
  </g>
  <g
     inkscape:groupmode="layer"
     id="layer6"
     inkscape:label="space"
     style="display:inline"
     transform="translate(-88.585019,-101.29981)">
    <path
       style="display:inline;fill:#666666;fill-opacity:1;stroke-width:0.08466666"
       d="m 104.33303,131.10248 v -2.20134 h 0.33866 c 0.24661,0 0.33867,0.035 0.33867,0.12872 0,0.10806 0.0538,0.10126 0.33529,-0.0423 0.51336,-0.26189 1.03165,-0.22944 1.39226,0.0872 0.36149,0.31739 0.49365,0.69573 0.48958,1.40155 -0.007,1.20217 -0.97178,1.98408 -1.87313,1.51798 l -0.24025,-0.12424 0.0447,0.7169 0.0447,0.71691 h -0.43527 -0.43526 z m 1.77423,0.18612 c 0.44196,-0.44196 0.41186,-1.46511 -0.052,-1.76908 -0.20693,-0.13558 -0.23478,-0.13445 -0.52584,0.0214 l -0.30734,0.16456 -0.0243,0.77883 c -0.0242,0.77533 -0.0232,0.7794 0.21167,0.90678 0.33293,0.18053 0.42893,0.16643 0.69785,-0.10249 z m -4.87877,0.61965 c -0.61541,-0.31129 -0.64775,-0.37298 -0.3695,-0.70481 l 0.23483,-0.28004 0.31579,0.2143 c 0.56347,0.38239 1.1759,0.35829 1.43351,-0.0564 0.1499,-0.2413 -0.0253,-0.41647 -0.79577,-0.79543 -0.90962,-0.44741 -1.18566,-0.74244 -1.18566,-1.26718 0,-0.74712 0.53089,-1.21978 1.3662,-1.21635 0.47877,0.002 1.04785,0.20892 1.25169,0.45524 0.10625,0.12837 0.0949,0.17063 -0.0979,0.36345 l -0.21818,0.21817 -0.37328,-0.1807 c -0.42656,-0.2065 -0.56472,-0.21979 -0.86453,-0.0832 -0.42403,0.1932 -0.37294,0.57355 0.10677,0.79484 1.54395,0.71222 1.65533,0.81312 1.65566,1.49981 1.7e-4,0.43416 -0.1601,0.72334 -0.57107,1.03017 -0.17134,0.12793 -0.39106,0.18048 -0.84144,0.20128 -0.52286,0.0241 -0.67175,-0.003 -1.04707,-0.19318 z m 6.92385,0.0921 c -0.27369,-0.15169 -0.42604,-0.45054 -0.42965,-0.84281 -0.002,-0.25816 0.0552,-0.38413 0.27663,-0.60559 0.27488,-0.27488 0.96869,-0.55011 1.38674,-0.55011 0.25262,0 0.24889,-0.12444 -0.0115,-0.38485 -0.25002,-0.25002 -0.39717,-0.25614 -0.88093,-0.0366 -0.20299,0.0921 -0.37934,0.16747 -0.39189,0.16747 -0.0649,0 -0.22174,-0.50953 -0.17842,-0.57963 0.0895,-0.14484 0.82999,-0.3517 1.25891,-0.3517 0.24045,0 0.51967,0.061 0.66088,0.14444 0.4207,0.24851 0.50127,0.55056 0.50127,1.87919 v 1.1937 h -0.33867 c -0.24479,0 -0.33866,-0.0352 -0.33866,-0.12716 0,-0.10556 -0.0537,-0.0984 -0.31625,0.0423 -0.36047,0.1932 -0.90073,0.21635 -1.19844,0.0513 z m 1.15485,-0.64292 c 0.24348,-0.14845 0.27517,-0.21077 0.27517,-0.5411 v -0.37332 l -0.29825,0.0673 c -0.6631,0.14955 -0.981,0.58154 -0.63446,0.86215 0.23921,0.1937 0.31822,0.1919 0.65754,-0.015 z m 2.56117,0.69999 c -0.58365,-0.21932 -0.93133,-0.79373 -0.93133,-1.5387 0,-0.59841 0.0988,-0.89559 0.40755,-1.22581 0.45938,-0.49132 1.32309,-0.63369 1.85966,-0.30655 l 0.27755,0.16922 -0.18764,0.2538 c -0.1032,0.13959 -0.19367,0.25379 -0.20104,0.25379 -0.007,0 -0.13556,-0.0609 -0.28487,-0.13542 -0.54862,-0.27369 -1.05818,0.18212 -1.05988,0.94809 -0.002,0.79043 0.45492,1.17769 1.09182,0.92588 0.32888,-0.13002 0.34567,-0.12832 0.49146,0.0499 0.19535,0.23879 0.1575,0.33776 -0.19832,0.51859 -0.28042,0.14251 -0.98797,0.19129 -1.26496,0.0872 z m 2.58233,-0.13116 c -0.91563,-0.51221 -0.97742,-2.2502 -0.10217,-2.87344 0.37254,-0.26526 1.18775,-0.30822 1.54828,-0.0816 0.33761,0.21223 0.56194,0.69381 0.57528,1.23496 l 0.0106,0.43063 -0.99483,0.0238 c -1.10552,0.0265 -1.16026,0.0629 -0.77806,0.51711 0.27464,0.32639 0.66364,0.40696 1.09487,0.22678 0.17766,-0.0742 0.33106,-0.12494 0.34089,-0.11269 0.0664,0.0828 0.21013,0.40646 0.21013,0.47319 0,0.14405 -0.66836,0.35347 -1.12354,0.35203 -0.29907,-0.001 -0.55272,-0.0629 -0.78146,-0.19085 z m 1.31234,-1.96061 c 0,-0.28318 -0.39027,-0.58195 -0.67367,-0.51574 -0.24187,0.0565 -0.59633,0.41254 -0.59633,0.59898 0,0.0957 0.13789,0.12228 0.635,0.12228 0.61582,0 0.635,-0.006 0.635,-0.20552 z"
       id="path5095-3"
       inkscape:connector-curvature="0"
       sodipodi:nodetypes="ccssccccccccccccccccccccccccscccccccccccccccsccscscscssccccsccscccsccccsccccccccccccccccscccscsss" />
  </g>
</svg>
